<?xml version="1.0" encoding="utf-8"?>
<!-- Svg Vector Icons : http://www.onlinewebfonts.com/icon -->
<!DOCTYPE svg PUBLIC "-//W3C//DTD SVG 1.1//EN" "http://www.w3.org/Graphics/SVG/1.1/DTD/svg11.dtd">
<svg version="1.1" xmlns="http://www.w3.org/2000/svg" xmlns:xlink="http://www.w3.org/1999/xlink" x="0px" y="0px" viewBox="0 0 1000 1000" enable-background="new 0 0 1000 1000" xml:space="preserve">
<metadata> Svg Vector Icons : http://www.onlinewebfonts.com/icon </metadata>
<g><path d="M401.2,35.4c0,0,37.9-25.4,92.5-25.4c76,0,126.1,38.1,126.1,38.1L859.3,188c0,0,88.3,56.3,88.3,144.1c0,87.8,0,313.7,0,313.7s8.9,107.4-92.5,169.5c-101.3,62.2-269,152.6-269,152.6s-80.8,63.8-218.6-25.4L153.2,819.6c0,0-100.9-49.8-100.9-169.6c0-119.7,0-313.7,0-313.7s-6.9-93.5,109.3-161.1L401.2,35.4z"/></g>
</svg>